<?xml version="1.0" encoding="UTF-8" standalone="no"?>
<!-- Created with Inkscape (http://www.inkscape.org/) -->

<svg
   xmlns:dc="http://purl.org/dc/elements/1.1/"
   xmlns:cc="http://creativecommons.org/ns#"
   xmlns:rdf="http://www.w3.org/1999/02/22-rdf-syntax-ns#"
   xmlns:svg="http://www.w3.org/2000/svg"
   xmlns="http://www.w3.org/2000/svg"
   xmlns:sodipodi="http://sodipodi.sourceforge.net/DTD/sodipodi-0.dtd"
   xmlns:inkscape="http://www.inkscape.org/namespaces/inkscape"
   width="204.52654"
   height="159.62662"
   id="svg2"
   version="1.1"
   inkscape:version="0.91 r13725"
   sodipodi:docname="cosine.svg">
  <sodipodi:namedview
     id="base"
     pagecolor="#ffffff"
     bordercolor="#666666"
     borderopacity="1.0"
     inkscape:pageopacity="0.0"
     inkscape:pageshadow="2"
     inkscape:zoom="2.8"
     inkscape:cx="40.920047"
     inkscape:cy="85.108638"
     inkscape:document-units="px"
     inkscape:current-layer="layer1"
     showgrid="false"
     inkscape:window-width="1440"
     inkscape:window-height="808"
     inkscape:window-x="0"
     inkscape:window-y="1"
     inkscape:window-maximized="1"
     fit-margin-top="0"
     fit-margin-left="0"
     fit-margin-right="0"
     fit-margin-bottom="0" />
  <defs
     id="defs4">
    <marker
       inkscape:stockid="Arrow1Mend"
       orient="auto"
       refY="0"
       refX="0"
       id="Arrow1Mend"
       style="overflow:visible">
      <path
         inkscape:connector-curvature="0"
         id="path3768"
         d="M 0,0 5,-5 -12.5,0 5,5 0,0 z"
         style="fill-rule:evenodd;stroke:#000000;stroke-width:1pt"
         transform="matrix(-0.4,0,0,-0.4,-4,0)" />
    </marker>
    <marker
       inkscape:stockid="Arrow1Lend"
       orient="auto"
       refY="0"
       refX="0"
       id="Arrow1Lend"
       style="overflow:visible">
      <path
         inkscape:connector-curvature="0"
         id="path3762"
         d="M 0,0 5,-5 -12.5,0 5,5 0,0 z"
         style="fill-rule:evenodd;stroke:#000000;stroke-width:1pt"
         transform="matrix(-0.8,0,0,-0.8,-10,0)" />
    </marker>
    <marker
       inkscape:stockid="Arrow1Mendr"
       orient="auto"
       refY="0"
       refX="0"
       id="Arrow1Mendr"
       style="overflow:visible">
      <path
         inkscape:connector-curvature="0"
         id="path4586"
         d="M 0,0 5,-5 -12.5,0 5,5 0,0 z"
         style="fill:#dadada;fill-rule:evenodd;stroke:#dadada;stroke-width:1pt"
         transform="matrix(-0.4,0,0,-0.4,-4,0)" />
    </marker>
    <marker
       inkscape:stockid="Arrow1Mendrv"
       orient="auto"
       refY="0"
       refX="0"
       id="Arrow1Mendrv"
       style="overflow:visible">
      <path
         inkscape:connector-curvature="0"
         id="path4634"
         d="M 0,0 5,-5 -12.5,0 5,5 0,0 z"
         style="fill:#c8c8c8;fill-rule:evenodd;stroke:#c8c8c8;stroke-width:1pt"
         transform="matrix(-0.4,0,0,-0.4,-4,0)" />
    </marker>
    <marker
       inkscape:stockid="Arrow1Mendry"
       orient="auto"
       refY="0"
       refX="0"
       id="Arrow1Mendry"
       style="overflow:visible">
      <path
         inkscape:connector-curvature="0"
         id="path4637"
         d="M 0,0 5,-5 -12.5,0 5,5 0,0 z"
         style="fill:#c8c8c8;fill-rule:evenodd;stroke:#c8c8c8;stroke-width:1pt"
         transform="matrix(-0.4,0,0,-0.4,-4,0)" />
    </marker>
    <marker
       inkscape:stockid="Arrow1MendrM"
       orient="auto"
       refY="0"
       refX="0"
       id="Arrow1MendrM"
       style="overflow:visible">
      <path
         inkscape:connector-curvature="0"
         id="path4640"
         d="M 0,0 5,-5 -12.5,0 5,5 0,0 z"
         style="fill:#c8c8c8;fill-rule:evenodd;stroke:#c8c8c8;stroke-width:1pt"
         transform="matrix(-0.4,0,0,-0.4,-4,0)" />
    </marker>
    <marker
       inkscape:stockid="Arrow1MendrvQ"
       orient="auto"
       refY="0"
       refX="0"
       id="Arrow1MendrvQ"
       style="overflow:visible">
      <path
         inkscape:connector-curvature="0"
         id="path4697"
         d="M 0,0 5,-5 -12.5,0 5,5 0,0 z"
         style="fill:#aaaaaa;fill-rule:evenodd;stroke:#aaaaaa;stroke-width:1pt"
         transform="matrix(-0.4,0,0,-0.4,-4,0)" />
    </marker>
    <marker
       inkscape:stockid="Arrow1MendrMj"
       orient="auto"
       refY="0"
       refX="0"
       id="Arrow1MendrMj"
       style="overflow:visible">
      <path
         inkscape:connector-curvature="0"
         id="path4700"
         d="M 0,0 5,-5 -12.5,0 5,5 0,0 z"
         style="fill:#aaaaaa;fill-rule:evenodd;stroke:#aaaaaa;stroke-width:1pt"
         transform="matrix(-0.4,0,0,-0.4,-4,0)" />
    </marker>
    <marker
       inkscape:stockid="Arrow1MendryQ"
       orient="auto"
       refY="0"
       refX="0"
       id="Arrow1MendryQ"
       style="overflow:visible">
      <path
         inkscape:connector-curvature="0"
         id="path4703"
         d="M 0,0 5,-5 -12.5,0 5,5 0,0 z"
         style="fill:#aaaaaa;fill-rule:evenodd;stroke:#aaaaaa;stroke-width:1pt"
         transform="matrix(-0.4,0,0,-0.4,-4,0)" />
    </marker>
    <marker
       inkscape:stockid="Arrow1Mendh"
       orient="auto"
       refY="0"
       refX="0"
       id="Arrow1Mendh"
       style="overflow:visible">
      <path
         inkscape:connector-curvature="0"
         id="path4057"
         d="M 0,0 5,-5 -12.5,0 5,5 0,0 z"
         style="fill:#aaaaaa;fill-rule:evenodd;stroke:#aaaaaa;stroke-width:1pt"
         transform="matrix(-0.4,0,0,-0.4,-4,0)" />
    </marker>
  </defs>
  <metadata
     id="metadata7">
    <rdf:RDF>
      <cc:Work
         rdf:about="">
        <dc:format>image/svg+xml</dc:format>
        <dc:type
           rdf:resource="http://purl.org/dc/dcmitype/StillImage" />
        <dc:title></dc:title>
      </cc:Work>
    </rdf:RDF>
  </metadata>
  <g
     transform="translate(-82.373118,-75.549747)"
     inkscape:label="Layer 1"
     inkscape:groupmode="layer"
     id="layer1">
    <circle
       id="path4203"
       style="fill:#ff4848;fill-opacity:1;stroke:none"
       transform="matrix(0.98317161,0.1826844,-0.1826844,0.98317161,0,0)"
       cx="163.14465"
       cy="67.70137"
       r="4.2857141" />
    <path
       sodipodi:nodetypes="cc"
       style="fill:none;stroke:#aaaaaa;stroke-width:1px;stroke-linecap:butt;stroke-linejoin:miter;stroke-opacity:1;marker-end:url(#Arrow1MendrMj)"
       d="M 87.247509,230.40884 144.42077,102.5117"
       id="path4209"
       inkscape:connector-curvature="0" />
    <path
       inkscape:connector-curvature="0"
       id="path4614"
       d="M 87.247509,230.40884 232.07931,181.28102"
       style="fill:none;stroke:#aaaaaa;stroke-width:1px;stroke-linecap:butt;stroke-linejoin:miter;stroke-opacity:1;marker-end:url(#Arrow1MendrvQ)"
       sodipodi:nodetypes="cc" />
    <path
       style="fill:none;stroke:#000000;stroke-width:1px;stroke-linecap:butt;stroke-linejoin:miter;stroke-opacity:1;marker-end:url(#Arrow1Lend)"
       d="m 86.873118,231.10816 0,-155.058413"
       id="path2985"
       inkscape:connector-curvature="0" />
    <path
       inkscape:connector-curvature="0"
       id="path4199"
       d="m 86.389457,230.67637 200.010203,0"
       style="fill:none;stroke:#000000;stroke-width:1px;stroke-linecap:butt;stroke-linejoin:miter;stroke-opacity:1;marker-end:url(#Arrow1Lend)" />
    <path
       sodipodi:type="arc"
       style="fill:none;stroke:#485fff;stroke-width:1.12529933;stroke-linecap:butt;stroke-linejoin:miter;stroke-miterlimit:4;stroke-opacity:1;stroke-dasharray:3.37589789, 1.12529930000000000;stroke-dashoffset:0"
       id="path4118"
       sodipodi:cx="4.2857141"
       sodipodi:cy="199.22127"
       sodipodi:rx="100.71429"
       sodipodi:ry="100.71429"
       d="M 48.564078,108.76247 A 100.71429,100.71429 0 0 1 98.205196,162.8551"
       transform="matrix(0.88865247,0,0,0.88865247,78.564608,58.137903)"
       sodipodi:start="5.1675905"
       sodipodi:end="5.9137568"
       sodipodi:open="true" />
    <circle
       r="4.2857141"
       cy="132.42154"
       cx="266.86966"
       transform="matrix(0.98317161,0.1826844,-0.1826844,0.98317161,0,0)"
       style="fill:#0057ff;fill-opacity:1;stroke:none"
       id="circle3474" />
  </g>
</svg>
